<svg width="390" height="329" viewBox="0 0 390 329" fill="none" xmlns="http://www.w3.org/2000/svg">
<g filter="url(#filter0_d_49_88)">
<path d="M74.2598 167.137H105.217C106.473 170.72 108.357 175.19 111.276 179.919C114.342 184.869 117.593 188.674 120.363 191.482V146.154C120.363 143.938 118.553 142.127 116.337 142.127H69.5313C68.5338 129.937 67.9797 103.301 82.2762 74.5976C101.966 34.959 136.396 18.4829 146.592 14.0499V96.0239H120.4V66.6551C115.413 71.4576 107.84 79.9911 102.483 92.6622C99.1587 100.457 98.6415 107.513 97.9027 113.202C97.6071 115.381 98.2721 117.413 100.489 117.413H146.629V248.188C134.955 243.016 112.901 231.342 94.7995 207.404C83.3845 192.294 77.4368 177.555 74.2598 167.137Z" fill="white"/>
<path d="M222.581 126.501C223.173 121.735 224.983 117.229 227.753 113.313L227.79 113.276C229.859 110.32 230.856 109.545 231.965 107.734C232.519 106.811 233.11 105.629 233.553 104.04C233.997 102.526 234.144 100.974 234.144 99.4225V13.1263C234.144 11.1314 232.814 9.35824 230.893 8.84105C222.101 6.329 210.021 3.92778 195.651 4.00166C181.65 4.0386 169.902 6.40288 161.258 8.84105C159.337 9.39518 158.007 11.1314 158.007 13.1263V252.288C161.886 253.507 166.245 254.652 171.048 255.613C175.481 256.499 179.618 257.091 183.423 257.46V145.378C183.423 143.568 184.901 142.127 186.674 142.127H190.22C200.232 142.127 208.359 150.255 208.359 160.266V257.571C212.829 257.127 217.779 256.426 223.099 255.28C227.088 254.431 230.746 253.433 234.107 252.362V158.825C234.107 156.867 233.664 154.946 232.741 153.247C232.667 153.099 232.593 152.951 232.482 152.804C231.226 150.698 229.933 150.033 228.307 148.223C226.423 146.154 225.574 144.159 224.65 142.09C222.212 136.586 222.286 131.636 222.323 129.641C222.36 128.57 222.471 127.498 222.581 126.501ZM208.359 98.7576C208.359 109.027 200.01 117.376 189.74 117.376H183.423V33.9985C183.423 31.3387 185.566 29.1591 188.262 29.1591H203.704C206.29 29.1591 208.396 31.2648 208.396 33.8507V98.7576H208.359Z" fill="white"/>
<path d="M283.831 95.95H318.039C314.973 85.2738 307.843 65.9163 291.183 47.002C274.337 27.9031 255.792 18.409 245.559 14.0499C245.559 92.0711 245.559 170.092 245.559 248.114C256.716 243.274 277.847 232.339 295.653 209.768C308.361 193.661 314.604 177.702 317.744 167.174C306.44 167.174 295.135 167.174 283.794 167.174C283.794 169.575 283.499 174.378 280.765 179.55C277.625 185.497 273.044 188.6 270.975 189.819C270.975 150.993 270.975 112.168 270.975 73.3416C273.081 74.7085 277.071 77.7377 280.1 83.0573C283.203 88.4139 283.72 93.438 283.831 95.95Z" fill="white"/>
<path d="M31.9984 153.062C35.0276 151.954 38.0568 150.329 37.6874 145.895C37.3549 142.349 34.6951 141.204 32.1831 141.462C29.043 141.758 27.5653 143.938 25.866 148.075C23.5017 153.912 21.5069 156.719 16.963 157.126C11.865 157.569 7.61672 153.542 7.0626 147.299C6.804 144.418 7.39507 141.832 7.9492 139.763C9.20523 139.283 12.6778 138.359 15.1529 137.805L15.6701 139.32C12.6039 140.539 8.50333 143.125 8.90969 148.001C9.20523 151.326 11.6434 153.136 14.7465 152.878C18.256 152.582 19.549 150.513 21.433 146.191C23.6864 140.982 25.7183 137.879 30.2252 137.473C34.5843 137.066 38.8696 140.317 39.4606 146.708C39.7192 149.479 39.239 152.139 39.1282 153.136C37.4288 153.469 35.434 153.875 32.4047 154.54L31.9984 153.062Z" fill="white"/>
<path d="M46.4426 188.822C45.4821 185.977 44.4477 185.165 42.379 185.608C41.2338 185.83 39.3497 186.236 35.2861 187.344L30.1143 188.711C25.5335 189.93 21.7285 190.337 18.219 188.416C15.4114 186.864 13.8229 183.909 12.9732 180.695C12.2344 177.961 12.0497 174.932 13.0841 172.457C14.4509 169.132 17.2215 166.989 22.5412 165.549L34.2518 162.408C38.4262 161.3 38.6109 160.857 37.9459 157.126L39.3128 156.756L42.6376 169.243L41.2707 169.612C40.0516 166.029 39.6083 165.77 35.4339 166.878L23.7972 169.982C17.3693 171.718 14.5248 175.745 16.0025 181.138C17.7018 187.492 22.3195 188.526 29.8187 186.532L34.6951 185.239C38.7587 184.167 40.4211 183.539 41.6771 183.133C43.7089 182.431 44.1522 181.138 43.4503 177.702L44.8171 177.333L47.7725 188.453L46.4426 188.822Z" fill="white"/>
<path d="M38.2415 220.629C36.6899 221.035 31.592 221.922 30.0773 222.107L20.3986 201.899L21.6546 201.271C23.8711 205.002 24.2775 205.224 27.9347 203.488L44.8541 195.361C48.5113 193.624 48.5483 193.07 47.2184 189.524L48.4744 188.896L54.1634 200.754L52.9074 201.382C50.9126 198.131 50.5062 197.762 46.8489 199.498L29.5232 207.81C26.9373 209.029 26.4201 209.657 27.5283 212.132C27.5283 212.169 28.8952 215.088 29.006 215.346C30.0773 217.6 30.7053 218.08 32.2569 218.56C33.8085 219.077 36.025 219.188 37.946 219.077L38.2415 220.629Z" fill="white"/>
<path d="M65.32 233.485C66.4282 232.192 67.4257 230.751 67.7951 229.864C68.3862 228.534 68.4231 227.943 66.9454 225.764L64.4703 222.07L45.3344 234.888C42.1944 236.994 42.0466 237.585 44.2631 241.464L43.081 242.24L35.1754 230.455L36.3576 229.68C39.0174 233.152 39.6084 233.226 42.7854 231.083L61.9213 218.228L59.6309 214.829C58.1533 212.649 57.4883 212.169 55.8629 212.28C54.7546 212.317 53.4616 212.649 51.6515 213.13L50.8018 211.874C53.4617 210.433 56.2323 208.955 58.4488 207.588L59.0768 208.549C58.5227 209.768 58.8552 210.211 59.594 211.32L70.1224 227.02C70.8613 228.128 71.2676 228.35 72.4498 228.461L73.1147 229.458C71.3046 230.677 68.4231 232.857 66.2435 234.63L65.32 233.485Z" fill="white"/>
<path d="M60.5175 262.78L61.5519 261.819C63.9531 263.814 64.5073 263.703 65.3939 261.93C66.2805 260.268 67.3518 258.014 68.7556 255.391L61.8474 248.003C59.8895 248.853 58.0424 249.628 56.2323 250.441C53.2769 251.771 53.4986 252.584 55.8259 255.724L54.7915 256.684L47.1815 248.557L48.2159 247.597C50.5432 249.517 51.319 249.85 55.5673 248.151L80.54 238.287L81.9069 239.285C77.9911 247.079 73.7427 255.576 69.8269 263.371C67.832 267.397 67.869 267.951 69.8638 270.648L68.8295 271.609L60.5175 262.78ZM75.5159 242.351C71.6001 243.976 67.4996 245.676 63.8423 247.19L69.79 253.507L75.5159 242.351Z" fill="white"/>
<path d="M117.26 270.722C114.6 269.244 113.492 269.06 112.125 270.759C111.165 272.015 109.946 273.53 107.397 277.076L96.2772 292.592L94.6887 291.447L92.546 259.529L85.7487 269.06C83.2736 272.532 82.1654 274.305 81.4265 275.488C80.1336 277.483 80.6138 278.775 83.2736 281.029L82.4609 282.174L73.0038 275.414L73.8165 274.269C76.3286 275.783 77.6585 275.857 79.21 274.084C80.2444 272.902 81.5374 271.276 84.0125 267.767L90.9945 258.014C91.8072 256.906 92.1766 256.167 92.1027 254.8C92.0658 253.323 91.4008 252.51 89.6646 250.995L90.4773 249.85L96.6097 254.246L99.0848 284.871L105.55 275.82C108.099 272.274 109.17 270.611 109.909 269.318C111.017 267.508 110.611 266.326 107.618 263.888L108.431 262.743L117.999 269.577L117.26 270.722Z" fill="white"/>
<path d="M132.813 301.532C132.037 302.566 128.786 306.593 127.789 307.664L106.473 297.948L107.064 296.655C111.239 298.17 111.682 297.948 113.308 294.365L121.065 277.335C122.802 273.493 122.432 273.049 119.366 271.313L119.957 270.02L133.367 276.153C137.541 278.037 139.204 278.775 139.758 278.96C139.315 279.995 138.022 283.393 137.098 285.831L135.62 285.425C135.916 283.763 135.916 282.47 135.768 281.361C135.657 279.699 134.882 278.997 132.333 277.852L128.454 276.079C127.05 275.451 126.902 275.525 126.311 276.818L121.989 286.312L126.717 288.454C129.821 289.858 130.375 289.341 132.259 286.607L133.662 287.235L129.525 296.286L128.121 295.658C128.971 292.259 128.823 291.631 125.794 290.264L121.139 288.122L117.297 296.544C115.93 299.574 116.558 300.313 118.775 301.384L122.654 303.157C125.277 304.339 125.905 304.191 127.382 303.49C128.712 302.898 130.412 301.569 131.631 300.534L132.813 301.532Z" fill="white"/>
<path d="M158.303 292.296C158.34 289.045 157.896 285.647 153.611 284.464C150.212 283.504 148.181 285.61 147.479 288.048C146.629 291.114 148.144 293.22 151.432 296.286C156.049 300.571 157.97 303.416 156.751 307.812C155.384 312.725 150.102 315.274 144.08 313.612C141.309 312.836 139.093 311.358 137.357 310.102C137.357 308.772 137.726 305.189 138.059 302.677L139.647 302.714C139.721 306.002 140.681 310.767 145.41 312.097C148.624 312.984 151.21 311.358 152.023 308.366C152.983 305.004 151.542 303.009 148.144 299.721C144.043 295.769 141.901 292.776 143.12 288.417C144.302 284.206 148.846 281.324 155.052 283.061C157.712 283.8 160.039 285.203 160.963 285.647C160.667 287.346 160.335 289.341 159.891 292.407L158.303 292.296Z" fill="white"/>
<path d="M202.67 321C202.116 320.963 201.599 320.926 200.971 320.815C197.055 320.372 195.245 319.301 193.398 316.456C191.735 313.907 190.221 310.841 188.817 308.255C187.967 306.74 187.376 306.408 185.086 306.297L183.534 306.223L183.165 313.612C182.98 317.638 183.46 317.897 187.228 318.488L187.154 319.892L174.114 319.264L174.188 317.86C178.104 317.638 178.473 317.417 178.658 313.427L179.581 294.587C179.766 290.597 179.286 290.338 175.555 289.784L175.629 288.38L188.078 288.971C191.698 289.156 194.026 289.71 195.799 291.003C197.683 292.333 198.865 294.55 198.717 297.468C198.532 301.606 195.725 303.97 192.215 305.263C192.991 306.777 194.838 310.028 196.168 312.245C197.794 314.868 198.643 316.124 199.678 317.343C200.86 318.747 201.82 319.301 202.966 319.67L202.67 321ZM185.751 304.635C188.152 304.746 189.74 304.45 190.959 303.526C192.843 302.234 193.656 300.386 193.804 297.837C194.063 292.739 190.849 290.745 187.376 290.56C186.009 290.486 185.233 290.634 184.901 290.929C184.458 291.225 184.31 291.705 184.273 292.924L183.719 304.524L185.751 304.635Z" fill="white"/>
<path d="M234.662 286.792C231.706 287.42 230.783 288.306 230.93 290.412C231.004 291.557 231.189 293.478 231.743 297.653L232.445 302.935C233.073 307.627 232.999 311.469 230.672 314.683C228.788 317.306 225.648 318.488 222.36 318.931C219.552 319.301 216.523 319.116 214.196 317.786C211.093 316.013 209.282 313.021 208.544 307.516L206.918 295.473C206.327 291.188 205.921 290.966 202.116 291.151L201.931 289.747L214.75 288.011L214.935 289.415C211.24 290.19 210.908 290.597 211.462 294.845L213.087 306.777C213.974 313.39 217.631 316.678 223.173 315.939C229.674 315.052 231.3 310.619 230.265 302.898L229.6 297.874C229.046 293.737 228.64 291.964 228.381 290.671C227.938 288.565 226.719 287.974 223.21 288.233L223.025 286.829L234.44 285.277L234.662 286.792Z" fill="white"/>
<path d="M270.791 291.262C268.205 292.629 268.057 292.961 269.054 295.658L270.384 299.352C270.938 300.941 271.53 302.418 272.195 303.527C269.719 305.078 266.21 307.479 262.479 308.846C252.246 312.54 243.786 308.44 240.535 299.426C237.063 289.858 242.863 281.509 251.95 278.221C256.346 276.633 260.151 276.263 261.629 275.968C262.331 277.667 263.624 280.401 264.954 283.061L263.624 283.836C261.186 280.401 259.191 279.219 256.051 279.33C254.906 279.33 253.022 279.773 251.729 280.253C245.116 282.617 242.456 288.934 245.375 297.025C247.998 304.302 254.019 309.954 262.479 306.888C263.883 306.371 265.139 305.595 265.841 304.819C266.542 303.97 266.912 303.231 266.247 301.495L264.917 297.764C263.735 294.513 263.218 294.328 258.895 295.51L258.415 294.143L270.274 289.858L270.791 291.262Z" fill="white"/>
<path d="M287.636 277.039C292.032 275.34 296.355 275.377 298.682 279.33C300.307 282.063 300.086 285.24 298.46 287.974C297.056 290.412 295.098 292.148 292.217 293.885L281.873 300.017L281.134 298.798C284.348 296.434 284.385 295.953 282.427 292.703L272.749 276.411C270.717 273.013 270.163 272.939 266.727 274.601L265.988 273.382L277.034 266.806C280.1 264.959 282.354 264.331 284.275 264.442C286.306 264.553 288.19 265.513 289.409 267.582C291.737 271.387 289.631 275.044 287.636 277.039ZM282.538 279.367C286.934 276.744 287.636 273.936 285.678 270.611C283.905 267.619 280.802 266.659 277.182 268.838C276.073 269.503 275.408 270.057 275.187 270.574C275.002 271.018 275.15 271.535 275.889 272.754L280.543 280.586L282.538 279.367ZM286.306 290.301C288.043 293.257 289.336 293.552 292.106 291.89C295.135 290.08 297.019 286.57 294.544 282.359C292.069 278.221 288.227 278.037 283.314 280.992L281.43 282.1L286.306 290.301Z" fill="white"/>
<path d="M310.614 243.053C308.361 245.454 308.213 246.304 308.73 249.813C309.321 253.729 310.097 257.238 311.094 262.078C311.353 263.223 311.612 263.74 312.35 264.627L316.155 269.097C318.741 272.126 319.222 272.052 322.805 269.614L323.728 270.685L313.089 279.699L312.166 278.628C315.047 275.451 315.232 275.192 312.609 272.089L308.73 267.471C308.102 266.732 307.659 266.511 306.329 265.994C303.115 264.701 299.901 263.445 294.951 261.671C291.478 260.415 290.702 260.304 288.08 262.078L287.156 261.006L296.428 253.175L297.352 254.246C295.062 256.795 295.616 257.164 297.315 257.866C301.083 259.344 305.479 261.117 309.284 262.558C308.545 259.122 307.289 253.544 306.587 250.626C305.922 248.188 305.442 247.929 302.376 250.035L301.452 248.963L309.727 241.981L310.614 243.053Z" fill="white"/>
<path d="M351.176 226.207C352.654 228.091 354.723 231.157 355.498 232.635C354.944 233.891 353.43 237.437 351.287 240.356C344.416 249.776 334.811 249.85 328.198 245.011C320.33 239.248 319.295 229.31 325.649 220.592C328.088 217.267 330.784 215.051 331.856 213.979C333.703 215.088 336.326 216.565 338.431 217.637L337.766 219.077C334.552 217.932 332.299 217.747 330.045 219.151C328.863 219.816 327.496 221.183 326.499 222.55C321.955 228.756 324.283 235.443 330.563 240.023C337.914 245.38 345.487 245.084 349.883 239.026C352.654 235.221 352.321 231.97 349.846 227.094L351.176 226.207Z" fill="white"/>
<path d="M364.697 198.427C365.99 199.387 369.832 202.823 370.94 203.894L361.187 224.065L359.931 223.436C361.446 219.373 361.372 218.93 357.752 217.156L340.832 208.992C337.212 207.219 336.732 207.551 334.774 210.765L333.518 210.137L339.244 198.316L340.5 198.944C339.17 202.527 339.17 203.082 342.827 204.855L360.153 213.241C362.739 214.497 363.552 214.533 364.771 212.095C364.808 212.058 366.248 209.177 366.359 208.918C367.431 206.702 367.431 205.889 366.84 204.374C366.285 202.823 364.992 201.05 363.699 199.609L364.697 198.427Z" fill="white"/>
<path d="M354.242 158.197C353.614 161.153 354.095 162.372 356.09 163.037C357.198 163.406 359.008 164.034 363.072 165.179L368.207 166.62C372.75 167.913 376.26 169.501 378.292 172.937C379.917 175.708 379.769 179.069 378.883 182.246C378.107 184.98 376.74 187.677 374.561 189.265C371.679 191.408 368.207 191.851 362.887 190.337L351.213 187.012C347.076 185.83 346.669 186.125 345.34 189.672L343.973 189.302L347.482 176.853L348.849 177.222C348.073 180.916 348.332 181.397 352.469 182.579L364.069 185.867C370.497 187.677 374.967 185.645 376.481 180.251C378.255 173.934 374.856 170.684 367.357 168.541L362.481 167.174C358.454 166.029 356.681 165.696 355.388 165.401C353.282 164.958 352.248 165.844 351.102 169.169L349.736 168.799L352.876 157.717L354.242 158.197Z" fill="white"/>
<path d="M368.059 141.758C369.241 137.177 371.79 133.705 376.371 134.111C379.548 134.37 381.986 136.438 383.279 139.32C384.424 141.906 384.719 144.492 384.424 147.853L383.39 159.823L381.986 159.712C381.949 155.722 381.579 155.426 377.774 155.094L358.897 153.469C354.944 153.136 354.575 153.542 353.91 157.311L352.506 157.2L353.614 144.418C353.91 140.834 354.723 138.655 355.905 137.177C357.198 135.589 359.045 134.591 361.446 134.813C365.842 135.108 367.652 138.95 368.059 141.758ZM366.987 147.262C367.431 142.164 365.547 139.948 361.705 139.615C358.232 139.32 355.683 141.278 355.314 145.489C355.203 146.782 355.277 147.632 355.535 148.112C355.794 148.555 356.274 148.703 357.715 148.814L366.766 149.59L366.987 147.262ZM378.07 150.55C381.505 150.846 382.466 149.996 382.725 146.745C383.02 143.236 381.284 139.652 376.371 139.209C371.568 138.803 369.204 141.832 368.687 147.558L368.502 149.737L378.07 150.55Z" fill="white"/>
</g>
<defs>
<filter id="filter0_d_49_88" x="0.2" y="0.2" width="389.131" height="328.6" filterUnits="userSpaceOnUse" color-interpolation-filters="sRGB">
<feFlood flood-opacity="0" result="BackgroundImageFix"/>
<feColorMatrix in="SourceAlpha" type="matrix" values="0 0 0 0 0 0 0 0 0 0 0 0 0 0 0 0 0 0 127 0" result="hardAlpha"/>
<feOffset dx="-1" dy="2"/>
<feGaussianBlur stdDeviation="2.9"/>
<feComposite in2="hardAlpha" operator="out"/>
<feColorMatrix type="matrix" values="0 0 0 0 1 0 0 0 0 1 0 0 0 0 1 0 0 0 0.21 0"/>
<feBlend mode="normal" in2="BackgroundImageFix" result="effect1_dropShadow_49_88"/>
<feBlend mode="normal" in="SourceGraphic" in2="effect1_dropShadow_49_88" result="shape"/>
</filter>
</defs>
</svg>
